<svg width="800" height="800" viewBox="0 0 800 800" fill="none" xmlns="http://www.w3.org/2000/svg">
<path d="M305.882 202.659C215.251 185.927 143.675 203.588 114.858 252.855C93.4786 289.572 99.5207 338.839 129.731 390.894C132.055 395.542 138.097 396.936 142.28 394.147C146.928 391.824 148.322 385.781 145.534 381.598C118.577 334.656 113.464 292.361 130.661 262.15C154.365 221.25 218.504 205.447 302.164 220.785C307.277 221.715 311.924 218.461 312.854 213.349C313.784 208.236 310.995 203.588 305.882 202.659ZM177.139 454.569C217.378 497.922 264.102 534.769 315.643 563.792C447.175 639.55 587.073 660.001 656.325 613.058C660.508 610.269 661.438 604.227 658.649 600.044C655.861 595.861 649.818 594.932 645.635 597.72C583.82 640.015 450.893 620.495 324.938 547.989C274.981 519.784 229.674 484.041 190.617 442.02C188.941 440.253 186.639 439.215 184.205 439.128C181.772 439.041 179.401 439.912 177.604 441.555C175.837 443.231 174.798 445.533 174.712 447.967C174.625 450.4 175.496 452.771 177.139 454.569Z" fill="#9FEAF9"/>
<path d="M634.016 443.414C693.508 373.232 713.958 302.586 685.606 253.32C664.691 217.067 620.073 198.011 561.51 197.081C556.398 197.081 552.215 201.264 552.215 206.377C552.215 211.489 556.398 215.672 561.51 215.672C614.495 216.137 652.607 232.869 669.804 262.615C693.508 303.516 674.916 366.725 620.073 431.33C618.488 433.186 617.697 435.592 617.871 438.027C618.045 440.462 619.169 442.731 621.002 444.343C622.859 445.928 625.264 446.719 627.699 446.545C630.134 446.371 632.403 445.247 634.016 443.414ZM481.569 205.447C423.405 218.756 367.61 240.854 316.107 270.981C179.927 349.529 91.6194 465.259 103.704 548.919C104.158 551.342 105.513 553.505 107.496 554.97C109.479 556.436 111.943 557.097 114.394 556.82C116.817 556.366 118.98 555.011 120.445 553.028C121.911 551.045 122.572 548.58 122.295 546.13C111.14 471.765 195.265 362.542 325.403 287.248C375.317 258.021 429.384 236.551 485.752 223.574C486.942 223.3 488.067 222.794 489.062 222.085C490.057 221.376 490.902 220.478 491.55 219.442C492.197 218.406 492.634 217.252 492.835 216.047C493.037 214.842 492.999 213.609 492.723 212.419C491.329 207.771 486.681 204.518 481.569 205.447Z" fill="#9FEAF9"/>
<path d="M261.728 607.016C292.869 693.465 343.529 746.914 400.697 746.914C442.527 746.914 480.639 718.563 510.85 668.367C513.638 664.184 512.244 658.142 507.596 655.818C503.413 653.029 497.371 654.423 495.047 659.071C468.09 704.155 435.091 728.323 400.697 728.323C353.29 728.323 308.206 680.916 279.39 600.509C278.976 599.34 278.332 598.266 277.496 597.349C276.66 596.433 275.65 595.693 274.523 595.173C273.397 594.654 272.179 594.364 270.939 594.323C269.699 594.281 268.464 594.488 267.306 594.932C266.137 595.346 265.062 595.99 264.146 596.826C263.23 597.661 262.49 598.672 261.97 599.798C261.45 600.924 261.161 602.143 261.12 603.383C261.078 604.622 261.285 605.858 261.728 607.016ZM545.243 590.284C562.143 534.386 570.449 476.245 569.877 417.851C569.877 264.009 515.962 131.083 439.274 97.154C434.626 95.2948 429.049 97.154 427.19 101.802C425.33 106.45 427.19 112.027 431.837 113.886C500.16 144.097 551.285 270.052 551.285 417.851C551.671 474.335 543.683 530.565 527.582 584.707C526.852 587.049 527.077 589.585 528.209 591.761C529.341 593.938 531.287 595.579 533.624 596.326C538.272 597.72 543.384 594.932 545.243 590.284ZM720 580.988C720 569.155 715.299 557.806 706.931 549.438C698.564 541.071 687.215 536.37 675.381 536.37C663.548 536.37 652.199 541.071 643.831 549.438C635.463 557.806 630.763 569.155 630.763 580.988C630.763 592.822 635.463 604.171 643.831 612.539C652.199 620.906 663.548 625.607 675.381 625.607C687.215 625.607 698.564 620.906 706.931 612.539C715.299 604.171 720 592.822 720 580.988ZM701.409 580.988C701.409 587.891 698.667 594.512 693.786 599.393C688.904 604.274 682.284 607.016 675.381 607.016C668.478 607.016 661.858 604.274 656.977 599.393C652.096 594.512 649.354 587.891 649.354 580.988C649.354 574.085 652.096 567.465 656.977 562.584C661.858 557.703 668.478 554.961 675.381 554.961C682.284 554.961 688.904 557.703 693.786 562.584C698.667 567.465 701.409 574.085 701.409 580.988ZM124.619 625.607C136.452 625.607 147.801 620.906 156.169 612.539C164.537 604.171 169.237 592.822 169.237 580.988C169.237 569.155 164.537 557.806 156.169 549.438C147.801 541.071 136.452 536.37 124.619 536.37C112.785 536.37 101.436 541.071 93.0685 549.438C84.7009 557.806 80 569.155 80 580.988C80 592.822 84.7009 604.171 93.0685 612.539C101.436 620.906 112.785 625.607 124.619 625.607ZM124.619 607.016C117.716 607.016 111.096 604.274 106.214 599.393C101.333 594.512 98.5911 587.891 98.5911 580.988C98.5911 574.085 101.333 567.465 106.214 562.584C111.096 557.703 117.716 554.961 124.619 554.961C131.522 554.961 138.142 557.703 143.023 562.584C147.904 567.465 150.646 574.085 150.646 580.988C150.646 587.891 147.904 594.512 143.023 599.393C138.142 604.274 131.522 607.016 124.619 607.016Z" fill="#9FEAF9"/>
<path d="M400.697 142.237C412.531 142.237 423.88 137.537 432.247 129.169C440.615 120.801 445.316 109.452 445.316 97.6187C445.316 85.7851 440.615 74.4362 432.247 66.0685C423.88 57.7009 412.531 53 400.697 53C388.864 53 377.515 57.7009 369.147 66.0685C360.779 74.4362 356.078 85.7851 356.078 97.6187C356.078 109.452 360.779 120.801 369.147 129.169C377.515 137.537 388.864 142.237 400.697 142.237ZM400.697 123.646C393.794 123.646 387.174 120.904 382.293 116.023C377.412 111.142 374.67 104.522 374.67 97.6187C374.67 90.7158 377.412 84.0956 382.293 79.2144C387.174 74.3333 393.794 71.5911 400.697 71.5911C407.6 71.5911 414.22 74.3333 419.101 79.2144C423.983 84.0956 426.725 90.7158 426.725 97.6187C426.725 104.522 423.983 111.142 419.101 116.023C414.22 120.904 407.6 123.646 400.697 123.646ZM407.204 449.456C398.894 451.123 390.262 449.482 383.144 444.881C376.027 440.28 370.985 433.084 369.092 424.823C367.425 416.513 369.067 407.881 373.667 400.763C378.268 393.645 385.464 388.604 393.725 386.711C402.035 385.044 410.667 386.685 417.785 391.286C424.903 395.887 429.945 403.083 431.837 411.344C432.725 415.464 432.792 419.719 432.034 423.865C431.276 428.011 429.708 431.966 427.42 435.506C425.133 439.046 422.17 442.1 418.701 444.493C415.232 446.887 411.325 448.573 407.204 449.456Z" fill="#9FEAF9"/>
</svg>
