<svg width="569" height="512" viewBox="0 0 569 512" fill="none" xmlns="http://www.w3.org/2000/svg">
<path d="M285.4 211.8C261.32 211.8 241.8 231.32 241.8 255.4C241.8 279.48 261.32 299 285.4 299C309.48 299 329 279.48 329 255.4C329 231.32 309.48 211.8 285.4 211.8Z" fill="#58C4DC"/>
<path d="M512.168 255.795C512.168 221.566 480.47 191.545 430.001 171.788C430.676 167.339 431.286 162.938 431.719 158.617C436.697 109.433 424.847 73.9349 398.368 58.6433C368.742 41.5367 326.896 53.953 284.584 87.813C242.272 53.953 200.426 41.5367 170.8 58.6433C144.321 73.9349 132.471 109.433 137.448 158.617C137.882 162.938 138.476 167.355 139.167 171.82C134.96 173.427 130.833 175.129 126.866 176.912C81.8089 197.167 57 225.212 57 255.795C57 290.025 88.6976 320.046 139.167 339.803C138.476 344.252 137.882 348.653 137.448 352.974C132.471 402.158 144.321 437.656 170.8 452.948C179.904 458.11 190.22 460.749 200.683 460.593C225.765 460.593 255.054 447.39 284.584 423.778C314.098 447.39 343.403 460.593 368.517 460.593C378.98 460.747 389.295 458.108 398.4 452.948C424.879 437.656 436.729 402.158 431.752 352.974C431.318 348.653 430.708 344.252 430.033 339.803C480.502 320.078 512.2 290.009 512.2 255.795M368.324 72.682C375.052 72.5197 381.702 74.1495 387.593 77.4044C405.979 88.0218 414.233 116.822 410.218 156.416C409.945 159.115 409.624 161.845 409.239 164.592C388.254 158.27 366.765 153.762 345.009 151.116C331.82 133.579 317.154 117.205 301.171 102.173C326.269 82.7693 349.826 72.682 368.308 72.682M359.685 299.164C351.564 313.265 342.721 326.936 333.19 340.124C317.036 341.784 300.807 342.61 284.568 342.598C268.334 342.609 252.11 341.783 235.962 340.124C226.457 326.936 217.64 313.264 209.547 299.164C201.426 285.103 194.046 270.627 187.436 255.795C194.046 240.964 201.426 226.488 209.547 212.427C217.627 198.383 226.417 184.761 235.881 171.611C252.06 169.91 268.316 169.063 284.584 169.074C300.818 169.064 317.041 169.889 333.19 171.547C342.687 184.717 351.509 198.361 359.621 212.427C367.736 226.491 375.116 240.967 381.732 255.795C375.116 270.624 367.736 285.1 359.621 299.164M392.78 283.102C397.876 297.003 402.06 311.222 405.305 325.668C391.224 330.059 376.869 333.52 362.335 336.028C367.859 327.697 373.211 319.029 378.392 310.023C383.515 301.124 388.316 292.145 392.844 283.166M254.091 363.302C264.078 363.913 274.275 364.266 284.6 364.266C294.925 364.266 305.186 363.913 315.19 363.302C305.705 374.667 295.486 385.398 284.6 395.428C273.737 385.4 263.546 374.668 254.091 363.302ZM206.849 335.996C192.31 333.499 177.95 330.049 163.863 325.668C167.095 311.245 171.263 297.047 176.34 283.166C180.804 292.145 185.589 301.124 190.792 310.023C195.994 318.921 201.374 327.692 206.849 336.028M176.34 228.409C171.281 214.579 167.124 200.436 163.895 186.068C177.947 181.682 192.269 178.21 206.769 175.675C201.277 183.98 195.898 192.589 190.711 201.568C185.525 210.547 180.788 219.414 176.26 228.409M315.093 148.273C305.106 147.662 294.909 147.309 284.504 147.309C274.184 147.309 264.014 147.63 253.994 148.273C263.449 136.907 273.641 126.175 284.504 116.147C295.394 126.173 305.613 136.904 315.093 148.273ZM378.36 201.568C373.158 192.552 367.778 183.878 362.222 175.547C376.795 178.055 391.187 181.522 405.305 185.923C402.066 200.345 397.898 214.541 392.828 228.425C388.364 219.446 383.563 210.467 378.376 201.584M159.014 156.432C154.951 116.854 163.253 88.0378 181.623 77.4205C187.516 74.1706 194.165 72.5411 200.892 72.6981C219.374 72.6981 242.931 82.7854 268.029 102.189C252.035 117.232 237.359 133.617 224.159 151.164C202.409 153.822 180.923 158.315 159.929 164.592C159.56 161.845 159.222 159.131 158.966 156.432M135.762 196.685C138.235 195.614 140.756 194.544 143.326 193.473C148.376 214.789 155.225 235.638 163.799 255.795C155.209 275.993 148.355 296.886 143.309 318.247C102.395 301.461 78.6777 278.203 78.6777 255.795C78.6777 234.561 99.5526 213.021 135.762 196.685ZM181.623 434.171C163.253 423.553 154.951 394.737 159.014 355.159C159.271 352.46 159.608 349.746 159.977 346.983C180.963 353.303 202.452 357.811 224.207 360.459C237.4 378.002 252.066 394.387 268.045 409.434C233.055 436.467 201.085 445.382 181.671 434.171M410.202 355.159C414.217 394.753 405.963 423.553 387.577 434.171C368.18 445.414 336.193 436.467 301.22 409.434C317.193 394.386 331.853 378.002 345.041 360.459C366.797 357.813 388.286 353.304 409.271 346.983C409.656 349.746 409.978 352.46 410.25 355.159M425.955 318.215C420.895 296.866 414.036 275.985 405.449 255.795C414.032 235.595 420.886 214.703 425.939 193.344C466.773 210.13 490.554 233.388 490.554 255.795C490.554 278.203 466.837 301.461 425.923 318.247" fill="#58C4DC"/>
</svg>
