<svg width="800" height="800" viewBox="0 0 800 800" fill="none" xmlns="http://www.w3.org/2000/svg">
<path d="M172.467 583.016C164.82 589.549 154.148 591.225 144.867 587.349L96.4 567.015C86.5165 562.893 80.0581 553.258 80 542.549V258.149C80.0581 247.44 86.5165 237.805 96.4 233.682L144.867 213.682C154.148 209.806 164.82 211.482 172.467 218.016L183.333 227.016C178.84 223.785 172.916 223.345 167.995 225.876C163.074 228.407 159.986 233.482 160 239.016V561.682C159.986 567.216 163.074 572.291 167.995 574.821C172.916 577.352 178.84 576.912 183.333 573.682L172.467 583.016Z" fill="#52218A"/>
<path d="M96.4 567.016C86.5165 562.893 80.0581 553.258 80 542.549V540.349C80.0672 546.646 83.9623 552.268 89.8348 554.544C95.7073 556.82 102.374 555.29 106.667 550.682L520 93.6822C531.994 81.7473 550.201 78.6506 565.467 85.9489L697.333 149.416C711.194 156.08 720.007 170.102 720 185.482V187.016C719.992 177.257 714.364 168.375 705.543 164.2C696.723 160.025 686.286 161.302 678.733 167.482L183.333 573.682L172.467 583.016C164.82 589.549 154.148 591.225 144.867 587.349L96.4 567.016Z" fill="#6C33AF"/>
<path d="M96.4 233.682C86.5165 237.805 80.0581 247.44 80 258.149V260.349C80.0672 254.051 83.9623 248.429 89.8348 246.154C95.7073 243.878 102.374 245.408 106.667 250.016L520 707.015C531.994 718.95 550.201 722.047 565.467 714.749L697.333 651.282C711.194 644.617 720.007 630.596 720 615.215V613.682C719.992 623.441 714.364 632.323 705.543 636.498C696.723 640.673 686.286 639.395 678.733 633.215L183.333 227.016L172.467 217.682C164.753 211.261 154.086 209.715 144.867 213.682L96.4 233.682Z" fill="#854CC7"/>
<path d="M565.467 714.749C550.201 722.047 531.994 718.95 520 707.016C526.718 713.685 536.785 715.665 545.528 712.037C554.272 708.408 559.979 699.882 560 690.416V110.416C560.032 100.925 554.345 92.3493 545.59 88.6867C536.835 85.024 526.735 86.9956 520 93.6822C531.994 81.7473 550.201 78.6506 565.467 85.9489L697.333 149.349C711.194 156.014 720.007 170.035 720 185.416V615.282C720.007 630.662 711.194 644.684 697.333 651.349L565.467 714.749Z" fill="#B179F1"/>
</svg>
