<svg width="800" height="800" viewBox="0 0 800 800" fill="none" xmlns="http://www.w3.org/2000/svg">
<path d="M697.373 149.403L565.591 85.9569C558.149 82.3686 549.774 81.1845 541.629 82.5686C533.484 83.9528 525.971 87.8367 520.132 93.6819L88.7414 486.973C83.5074 491.722 80.3743 498.356 80.0314 505.416C79.6885 512.475 82.1639 519.381 86.913 524.615C87.4844 525.232 88.0558 525.827 88.6728 526.375L123.893 558.372C128.495 562.561 134.419 565.005 140.635 565.281C146.852 565.556 152.969 563.646 157.924 559.881L677.535 165.858C681.46 162.88 686.138 161.057 691.043 160.593C695.948 160.129 700.885 161.044 705.298 163.234C709.712 165.424 713.426 168.802 716.023 172.989C718.621 177.176 719.998 182.004 720 186.931V185.4C720 177.878 717.876 170.509 713.873 164.141C709.87 157.773 704.151 152.664 697.373 149.403Z" fill="#0065A9"/>
<path d="M697.373 650.844L565.591 714.313C558.146 717.891 549.775 719.07 541.632 717.686C533.489 716.302 525.976 712.424 520.132 706.588L88.7414 313.274C83.5074 308.525 80.3743 301.891 80.0314 294.831C79.6885 287.772 82.1639 280.866 86.913 275.632C87.4844 275.015 88.0558 274.42 88.6728 273.872L123.893 241.875C128.499 237.668 134.437 235.213 140.669 234.938C146.901 234.662 153.032 236.583 157.992 240.366L677.535 634.389C681.46 637.367 686.138 639.19 691.043 639.654C695.948 640.118 700.885 639.203 705.298 637.013C709.712 634.823 713.426 631.444 716.023 627.258C718.621 623.071 719.998 618.243 720 613.316V614.962C719.975 622.463 717.84 629.807 713.839 636.152C709.838 642.497 704.132 647.589 697.373 650.844Z" fill="#007ACC"/>
<path d="M565.591 714.313C558.146 717.891 549.775 719.07 541.632 717.686C533.489 716.302 525.976 712.424 520.132 706.588C523.414 709.827 527.579 712.026 532.105 712.908C536.632 713.79 541.318 713.317 545.576 711.548C549.835 709.779 553.476 706.792 556.044 702.962C558.613 699.132 559.994 694.629 560.014 690.018V110.229C560.018 105.596 558.647 101.066 556.074 97.2132C553.501 93.3602 549.843 90.3575 545.562 88.5855C541.281 86.8135 536.571 86.3519 532.027 87.2592C527.484 88.1664 523.312 90.4017 520.04 93.6819C525.881 87.8388 533.392 83.9547 541.536 82.5667C549.68 81.1786 558.053 82.3554 565.499 85.934L697.259 149.288C704.058 152.534 709.801 157.636 713.825 164.005C717.848 170.374 719.989 177.751 720 185.285V614.962C720.002 622.49 717.877 629.865 713.869 636.238C709.862 642.61 704.136 647.721 697.351 650.981L565.591 714.313Z" fill="#1F9CF0"/>
</svg>
