<svg width="118" height="25" viewBox="0 0 118 25" fill="none" xmlns="http://www.w3.org/2000/svg">
<path d="M13.2812 3.125C13.4885 3.125 13.6872 3.20731 13.8337 3.35382C13.9802 3.50034 14.0625 3.69905 14.0625 3.90625V21.0938C14.0625 21.301 13.9802 21.4997 13.8337 21.6462C13.6872 21.7927 13.4885 21.875 13.2812 21.875C13.074 21.875 12.8753 21.7927 12.7288 21.6462C12.5823 21.4997 12.5 21.301 12.5 21.0938V3.90625C12.5 3.69905 12.5823 3.50034 12.7288 3.35382C12.8753 3.20731 13.074 3.125 13.2812 3.125ZM10.1562 6.25C10.3635 6.25 10.5622 6.33231 10.7087 6.47882C10.8552 6.62534 10.9375 6.82405 10.9375 7.03125V17.9688C10.9375 18.176 10.8552 18.3747 10.7087 18.5212C10.5622 18.6677 10.3635 18.75 10.1562 18.75C9.94905 18.75 9.75034 18.6677 9.60382 18.5212C9.45731 18.3747 9.375 18.176 9.375 17.9688V7.03125C9.375 6.82405 9.45731 6.62534 9.60382 6.47882C9.75034 6.33231 9.94905 6.25 10.1562 6.25ZM16.4062 6.25C16.6135 6.25 16.8122 6.33231 16.9587 6.47882C17.1052 6.62534 17.1875 6.82405 17.1875 7.03125V17.9688C17.1875 18.176 17.1052 18.3747 16.9587 18.5212C16.8122 18.6677 16.6135 18.75 16.4062 18.75C16.199 18.75 16.0003 18.6677 15.8538 18.5212C15.7073 18.3747 15.625 18.176 15.625 17.9688V7.03125C15.625 6.82405 15.7073 6.62534 15.8538 6.47882C16.0003 6.33231 16.199 6.25 16.4062 6.25ZM7.03125 8.59375C7.23845 8.59375 7.43716 8.67606 7.58368 8.82257C7.73019 8.96909 7.8125 9.1678 7.8125 9.375V15.625C7.8125 15.8322 7.73019 16.0309 7.58368 16.1774C7.43716 16.3239 7.23845 16.4062 7.03125 16.4062C6.82405 16.4062 6.62534 16.3239 6.47882 16.1774C6.33231 16.0309 6.25 15.8322 6.25 15.625V9.375C6.25 9.1678 6.33231 8.96909 6.47882 8.82257C6.62534 8.67606 6.82405 8.59375 7.03125 8.59375ZM19.5312 8.59375C19.7385 8.59375 19.9372 8.67606 20.0837 8.82257C20.2302 8.96909 20.3125 9.1678 20.3125 9.375V15.625C20.3125 15.8322 20.2302 16.0309 20.0837 16.1774C19.9372 16.3239 19.7385 16.4062 19.5312 16.4062C19.324 16.4062 19.1253 16.3239 18.9788 16.1774C18.8323 16.0309 18.75 15.8322 18.75 15.625V9.375C18.75 9.1678 18.8323 8.96909 18.9788 8.82257C19.1253 8.67606 19.324 8.59375 19.5312 8.59375ZM3.90625 10.1562C4.11345 10.1562 4.31216 10.2386 4.45868 10.3851C4.60519 10.5316 4.6875 10.7303 4.6875 10.9375V14.0625C4.6875 14.2697 4.60519 14.4684 4.45868 14.6149C4.31216 14.7614 4.11345 14.8438 3.90625 14.8438C3.69905 14.8438 3.50034 14.7614 3.35382 14.6149C3.20731 14.4684 3.125 14.2697 3.125 14.0625V10.9375C3.125 10.7303 3.20731 10.5316 3.35382 10.3851C3.50034 10.2386 3.69905 10.1562 3.90625 10.1562ZM22.6562 10.1562C22.8635 10.1562 23.0622 10.2386 23.2087 10.3851C23.3552 10.5316 23.4375 10.7303 23.4375 10.9375V14.0625C23.4375 14.2697 23.3552 14.4684 23.2087 14.6149C23.0622 14.7614 22.8635 14.8438 22.6562 14.8438C22.449 14.8438 22.2503 14.7614 22.1038 14.6149C21.9573 14.4684 21.875 14.2697 21.875 14.0625V10.9375C21.875 10.7303 21.9573 10.5316 22.1038 10.3851C22.2503 10.2386 22.449 10.1562 22.6562 10.1562Z" fill="#007BFE"/>
<path d="M32.3232 20.5H29.2959C29.2227 20.5 29.182 20.4593 29.1738 20.3779L26.2197 3.20264C26.2035 3.13753 26.2279 3.10498 26.293 3.10498H29.1006C29.1657 3.10498 29.2064 3.13753 29.2227 3.20264L30.8218 14.4941L32.4697 3.20264C32.486 3.13753 32.5348 3.10498 32.6162 3.10498H34.8745C34.9396 3.10498 34.9803 3.13753 34.9966 3.20264L36.6201 14.4941L38.2437 3.20264C38.2599 3.13753 38.3006 3.10498 38.3657 3.10498H41.1489C41.2303 3.10498 41.2629 3.13753 41.2466 3.20264L38.2681 20.3779C38.2599 20.4105 38.2355 20.439 38.1948 20.4634L38.146 20.5H35.1187C35.0698 20.5 35.0291 20.4593 34.9966 20.3779L33.7148 11.4058L32.4453 20.3779C32.4372 20.4593 32.3965 20.5 32.3232 20.5ZM40.3555 20.3779L43.4561 3.20264C43.4723 3.13753 43.513 3.10498 43.5781 3.10498H47.2036C47.2687 3.10498 47.3094 3.13753 47.3257 3.20264L50.3042 20.3779C50.3123 20.4593 50.2798 20.5 50.2065 20.5H47.4355C47.3542 20.5 47.3094 20.4593 47.3013 20.3779L47.0327 18.5469H43.627L43.3584 20.3779C43.3503 20.4593 43.3096 20.5 43.2363 20.5H40.4531C40.388 20.5 40.3555 20.4593 40.3555 20.3779ZM45.2505 8.85449L44.1274 15.8735H46.5322L45.5068 8.85449L45.3604 7.92676L45.2505 8.85449ZM55.6997 20.5H52.6724C52.5991 20.5 52.5584 20.4593 52.5503 20.3779L49.0957 3.20264C49.0794 3.13753 49.112 3.10498 49.1934 3.10498H52.0254C52.0905 3.10498 52.1312 3.13753 52.1475 3.20264L54.1982 14.6528L56.2002 3.20264C56.2165 3.13753 56.2572 3.10498 56.3223 3.10498H59.1177C59.2072 3.10498 59.2397 3.13753 59.2153 3.20264L55.8218 20.3779C55.8136 20.4593 55.7729 20.5 55.6997 20.5ZM68.8589 20.5H60.7778C60.7127 20.5 60.6802 20.4593 60.6802 20.3779L60.7046 3.20264C60.7046 3.13753 60.7371 3.10498 60.8022 3.10498H68.8345C68.8996 3.10498 68.9321 3.14567 68.9321 3.22705V6.02246C68.9321 6.08757 68.8996 6.12012 68.8345 6.12012H63.7075V10.0264H68.8345C68.8996 10.0264 68.9321 10.0589 68.9321 10.124L68.9565 12.9561C68.9565 13.0212 68.924 13.0537 68.8589 13.0537H63.7075V17.4238H68.8589C68.924 17.4238 68.9565 17.4645 68.9565 17.5459V20.4023C68.9565 20.4674 68.924 20.5 68.8589 20.5ZM74.1079 20.5H71.3003C71.2189 20.5 71.1782 20.4593 71.1782 20.3779L71.2271 3.20264C71.2271 3.13753 71.2596 3.10498 71.3247 3.10498H79.3325C79.4139 3.10498 79.4546 3.13753 79.4546 3.20264V6.02246C79.4546 6.08757 79.422 6.12012 79.3569 6.12012H74.23V10.002H79.3569C79.422 10.002 79.4546 10.0426 79.4546 10.124L79.479 12.9561C79.479 13.0212 79.4383 13.0537 79.3569 13.0537H74.23V20.3779C74.23 20.4593 74.1893 20.5 74.1079 20.5ZM86.3271 20.7441C85.4401 20.7441 84.6222 20.5163 83.8735 20.0605C83.133 19.6048 82.5348 18.9985 82.0791 18.2417C81.6315 17.4767 81.4077 16.6385 81.4077 15.7271L81.4321 7.80469C81.4321 6.87695 81.6559 6.04281 82.1035 5.30225C82.543 4.55355 83.137 3.9554 83.8857 3.50781C84.6344 3.05208 85.4482 2.82422 86.3271 2.82422C87.2386 2.82422 88.0565 3.04801 88.7808 3.49561C89.5132 3.9432 90.0991 4.54541 90.5386 5.30225C90.9862 6.05094 91.21 6.88509 91.21 7.80469L91.2344 15.7271C91.2344 16.6385 91.0146 17.4727 90.5752 18.2295C90.1276 18.9945 89.5335 19.6048 88.793 20.0605C88.0524 20.5163 87.2305 20.7441 86.3271 20.7441ZM86.3271 17.729C86.8317 17.729 87.2712 17.5256 87.6455 17.1187C88.0199 16.7036 88.207 16.2397 88.207 15.7271L88.1826 7.80469C88.1826 7.2513 88.0076 6.78337 87.6577 6.40088C87.3078 6.01839 86.8643 5.82715 86.3271 5.82715C85.8145 5.82715 85.375 6.01432 85.0088 6.38867C84.6426 6.76302 84.4595 7.23503 84.4595 7.80469V15.7271C84.4595 16.2723 84.6426 16.7443 85.0088 17.1431C85.375 17.5337 85.8145 17.729 86.3271 17.729ZM96.0562 20.5H93.2241C93.159 20.5 93.1265 20.4593 93.1265 20.3779L93.1753 3.20264C93.1753 3.13753 93.2078 3.10498 93.2729 3.10498H98.3267C99.23 3.10498 100.06 3.32471 100.817 3.76416C101.574 4.20361 102.176 4.79362 102.624 5.53418C103.079 6.27474 103.307 7.11296 103.307 8.04883C103.307 8.65918 103.214 9.21257 103.026 9.70898C102.839 10.2054 102.619 10.6245 102.367 10.9663C102.123 11.3081 101.899 11.5604 101.696 11.7231C102.599 12.7241 103.051 13.9001 103.051 15.251L103.075 20.3779C103.075 20.4593 103.035 20.5 102.953 20.5H100.121C100.056 20.5 100.023 20.4756 100.023 20.4268V15.251C100.023 14.6488 99.8118 14.1279 99.3887 13.6885C98.9655 13.249 98.4447 13.0293 97.8262 13.0293H96.1782L96.1538 20.3779C96.1538 20.4593 96.1213 20.5 96.0562 20.5ZM98.3267 6.0957H96.1782V10.0264H98.3267C98.8394 10.0264 99.2951 9.83512 99.6938 9.45264C100.101 9.07015 100.304 8.60221 100.304 8.04883C100.304 7.51986 100.109 7.06413 99.7183 6.68164C99.3276 6.29102 98.8638 6.0957 98.3267 6.0957ZM108.117 20.5H105.285C105.22 20.5 105.187 20.4593 105.187 20.3779L105.236 3.20264C105.236 3.13753 105.268 3.10498 105.333 3.10498H108.385C108.45 3.10498 108.507 3.13753 108.556 3.20264L110.839 6.49854L113.109 3.20264C113.158 3.13753 113.219 3.10498 113.292 3.10498H116.356C116.43 3.10498 116.466 3.13753 116.466 3.20264L116.515 20.3779C116.515 20.4593 116.483 20.5 116.417 20.5H113.585C113.52 20.5 113.488 20.4593 113.488 20.3779L113.463 7.62158L110.839 11.4302L108.239 7.62158L108.214 20.3779C108.214 20.4593 108.182 20.5 108.117 20.5Z" fill="#16B1D8"/>
</svg>
