<svg width="800" height="800" viewBox="0 0 800 800" fill="none" xmlns="http://www.w3.org/2000/svg">
<path d="M400 720C576.731 720 720 576.731 720 400C720 223.269 576.731 80 400 80C223.269 80 80 223.269 80 400C80 576.731 223.269 720 400 720Z" fill="#1794D4"/>
<path d="M445.714 194.286H400V240H445.714V194.286Z" fill="white"/>
<path d="M262.857 262.857H308.571V308.571H262.857V262.857Z" fill="white"/>
<path d="M171.464 421.518C175.37 487.833 214.863 582.857 354.286 582.857C509.714 582.857 579.047 468.571 594.286 411.429C613.333 411.429 656 400 674.286 354.286C662.857 342.857 617.143 342.857 594.286 354.286C594.286 336 582.857 297.143 560 285.714C544.761 300.953 521.143 340.571 548.571 377.143C537.143 400 506.667 400 491.429 400H192.981C180.878 400 170.752 409.435 171.464 421.518Z" fill="white"/>
<path d="M240 331.429H194.286V377.143H240V331.429Z" fill="white"/>
<path d="M262.857 331.429H308.571V377.143H262.857V331.429Z" fill="white"/>
<path d="M377.143 331.429H331.429V377.143H377.143V331.429Z" fill="white"/>
<path d="M400 331.429H445.714V377.143H400V331.429Z" fill="white"/>
<path d="M514.286 331.429H468.571V377.143H514.286V331.429Z" fill="white"/>
<path d="M377.143 262.857H331.429V308.571H377.143V262.857Z" fill="white"/>
<path d="M400 262.857H445.714V308.571H400V262.857Z" fill="white"/>
</svg>
