<svg width="800" height="800" viewBox="0 0 800 800" fill="none" xmlns="http://www.w3.org/2000/svg">
<path fill-rule="evenodd" clip-rule="evenodd" d="M400 80C576.736 80 720 226.878 720 408.094C720 553.022 628.416 675.967 501.344 719.391C485.12 722.623 479.36 712.377 479.36 703.641C479.36 692.825 479.744 657.498 479.744 613.594C479.744 583.002 469.504 563.035 458.016 552.859C529.28 544.731 604.16 516.985 604.16 390.969C604.16 355.129 591.744 325.882 571.2 302.906C574.528 294.618 585.504 261.246 568.064 216.062C568.064 216.062 541.248 207.271 480.16 249.703C454.592 242.439 427.2 238.784 400 238.656C372.8 238.784 345.44 242.439 319.904 249.703C258.752 207.271 231.872 216.062 231.872 216.062C214.496 261.246 225.472 294.618 228.768 302.906C208.32 325.882 195.808 355.129 195.808 390.969C195.808 516.665 270.528 544.837 341.6 553.125C332.448 561.317 324.16 575.768 321.28 596.984C303.04 605.368 256.704 619.878 228.16 569.734C228.16 569.734 211.232 538.21 179.104 535.906C179.104 535.906 147.904 535.492 176.928 555.844C176.928 555.844 197.888 565.924 212.448 603.844C212.448 603.844 231.232 662.403 320.256 642.562C320.416 669.986 320.704 695.833 320.704 703.641C320.704 712.313 314.816 722.462 298.848 719.422C171.68 676.062 80 553.054 80 408.094C80 226.878 223.296 80 400 80Z" fill="#F0F6FC"/>
</svg>
