<svg width="800" height="800" viewBox="0 0 800 800" fill="none" xmlns="http://www.w3.org/2000/svg">
<path fill-rule="evenodd" clip-rule="evenodd" d="M719.64 219.087C719.88 219.967 720 220.867 720 221.767V363.218C720 365.038 719.519 366.825 718.606 368.399C717.693 369.973 716.38 371.277 714.8 372.18L596.12 440.535V576.005C596.118 577.817 595.641 579.597 594.735 581.166C593.83 582.736 592.528 584.039 590.96 584.947L343.2 727.618C342.62 727.938 342 728.139 341.4 728.359C341.16 728.439 340.94 728.579 340.7 728.659C338.969 729.114 337.151 729.114 335.42 728.659C335.12 728.579 334.88 728.419 334.6 728.319C334.04 728.119 333.44 727.918 332.9 727.618L85.18 584.947C83.6084 584.042 82.3025 582.739 81.3933 581.17C80.4841 579.6 80.0036 577.819 80 576.005V151.652C80 150.732 80.12 149.831 80.36 148.951C80.44 148.651 80.62 148.391 80.72 148.091C80.92 147.551 81.1 146.991 81.38 146.491C81.58 146.151 81.86 145.89 82.08 145.57C82.38 145.17 82.66 144.73 83 144.37C83.3 144.07 83.68 143.85 84.02 143.59C84.4 143.29 84.72 142.95 85.16 142.71L209.04 71.3741C210.607 70.4738 212.383 70 214.19 70C215.997 70 217.773 70.4738 219.34 71.3741L343.22 142.71C343.64 142.97 344 143.29 344.36 143.59C344.7 143.85 345.08 144.07 345.36 144.35C345.74 144.75 346 145.15 346.3 145.57C346.52 145.89 346.82 146.151 347 146.491C347.3 146.991 347.46 147.551 347.68 148.091C347.78 148.391 347.96 148.651 348.02 148.971C348.263 149.844 348.391 150.745 348.4 151.652V416.71L451.6 357.257V221.767C451.609 220.861 451.737 219.96 451.98 219.087C452.06 218.766 452.22 218.486 452.34 218.206C452.54 217.666 452.72 217.106 453 216.606C453.2 216.266 453.48 216.006 453.7 215.686C454 215.286 454.26 214.846 454.62 214.486C454.92 214.185 455.3 213.985 455.62 213.725C456.02 213.405 456.36 213.065 456.76 212.825L580.66 141.489C582.226 140.587 584.002 140.112 585.81 140.112C587.618 140.112 589.394 140.587 590.96 141.489L714.84 212.825C715.28 213.085 715.6 213.425 716 213.705C716.32 213.965 716.68 214.185 717 214.486C717.34 214.846 717.6 215.286 717.92 215.686C718.14 216.006 718.42 216.286 718.6 216.606C718.9 217.106 719.08 217.666 719.28 218.206C719.4 218.506 719.56 218.766 719.64 219.087ZM699.36 357.257V239.631L656 264.597L596.12 299.084V416.71L699.36 357.257ZM575.48 570.044V452.338L516.58 485.985L348.38 582.006V700.833L575.48 570.044ZM100.64 169.516V570.044L327.74 700.813V582.026L209.1 514.872L209.06 514.832L209 514.812C208.6 514.572 208.28 514.252 207.9 513.951C207.58 513.711 207.2 513.491 206.92 513.211L206.9 513.171C206.56 512.851 206.32 512.451 206.04 512.091C205.78 511.751 205.48 511.451 205.28 511.091L205.26 511.051C205.02 510.651 204.88 510.191 204.72 509.751C204.54 509.37 204.32 509.01 204.22 508.59C204.1 508.09 204.08 507.59 204.02 507.07C203.96 506.67 203.86 506.31 203.86 505.91V228.949L144 194.461L100.64 169.516ZM214.2 92.2387L111 151.652L214.18 211.065L317.38 151.652L214.2 92.2387ZM267.88 463.06L327.74 428.593V169.516L284.4 194.461L224.52 228.949V488.026L267.88 463.06ZM585.8 162.354L482.6 221.767L585.8 281.18L688.96 221.767L585.8 162.354ZM575.46 299.084L515.58 264.597L472.24 239.631V357.257L532.1 391.725L575.46 416.71V299.084ZM338.02 564.142L489.38 477.723L565.04 434.514L461.92 375.141L343.2 443.516L235 505.83L338.02 564.142Z" fill="#FF2D20"/>
</svg>
