<svg width="800" height="800" viewBox="0 0 800 800" fill="none" xmlns="http://www.w3.org/2000/svg">
<path d="M718.845 441.32L682.96 333.711L612.013 120.229C611.173 117.812 609.597 115.718 607.506 114.242C605.415 112.767 602.915 111.983 600.356 112C597.805 111.992 595.315 112.781 593.233 114.256C591.152 115.731 589.583 117.819 588.745 120.229L517.798 333.573H282.145L211.198 120.183C210.358 117.778 208.787 115.696 206.705 114.229C204.623 112.761 202.134 111.982 199.586 112C197.033 111.985 194.54 112.771 192.457 114.247C190.375 115.723 188.807 117.815 187.975 120.229L117.119 333.573L81.2799 441.32C79.6938 446.121 79.6953 451.305 81.2842 456.104C82.8732 460.904 85.9652 465.065 90.1026 467.971L400.04 687.944L709.886 467.971C714.042 465.079 717.157 460.926 718.77 456.126C720.384 451.327 720.41 446.136 718.845 441.32Z" fill="#FC6D26"/>
<path d="M399.994 687.807L517.843 333.528H282.191L399.994 687.807Z" fill="#E24329"/>
<path d="M399.994 687.807L282.099 333.528H117.165L399.994 687.807Z" fill="#FC6D26"/>
<path d="M117.028 333.665L81.1885 441.274C79.6024 446.075 79.6039 451.259 81.1928 456.059C82.7818 460.858 85.8738 465.019 90.0112 467.925L399.994 687.99L117.028 333.711V333.665Z" fill="#FCA326"/>
<path d="M117.119 333.665H282.236L211.198 120.32C210.36 117.91 208.791 115.822 206.709 114.347C204.628 112.872 202.138 112.084 199.586 112.092C197.027 112.074 194.527 112.858 192.436 114.334C190.346 115.81 188.77 117.903 187.929 120.32L117.119 333.665Z" fill="#E24329"/>
<path d="M399.994 687.807L517.843 333.528H683.052L399.994 687.807Z" fill="#FC6D26"/>
<path d="M682.96 333.665L718.754 441.274C720.348 446.074 720.35 451.261 718.76 456.062C717.171 460.864 714.074 465.024 709.931 467.925L399.994 687.807L682.869 333.665H682.96Z" fill="#FCA326"/>
<path d="M682.96 333.665H517.935L588.836 120.32C589.671 117.899 591.245 115.802 593.337 114.325C595.429 112.848 597.933 112.067 600.493 112.092C605.75 112.092 610.413 115.429 612.104 120.32L683.052 333.665H682.96Z" fill="#E24329"/>
</svg>
