<svg width="48" height="48" viewBox="0 0 48 48" fill="none" xmlns="http://www.w3.org/2000/svg">
<path d="M38.0471 26.5436C36.7048 26.5506 35.5424 26.8726 34.5685 27.3535C34.2124 26.6422 33.8511 26.0165 33.7909 25.5513C33.7202 25.0085 33.6381 24.6838 33.7237 24.0372C33.8092 23.3905 34.1836 22.4741 34.1783 22.4052C34.1731 22.3363 34.0946 22.0072 33.3205 22.0011C32.5464 21.9959 31.884 22.1504 31.8063 22.3546C31.7286 22.5588 31.5794 23.0187 31.4869 23.4987C31.3516 24.2004 29.9413 26.7042 29.1411 28.0132C28.8792 27.5018 28.6567 27.0515 28.6105 26.6954C28.5398 26.1526 28.4577 25.828 28.5433 25.1813C28.6288 24.5346 29.0032 23.6183 28.9979 23.5493C28.9927 23.4804 28.9142 23.1514 28.1401 23.1453C27.366 23.14 26.7036 23.2945 26.6259 23.4987C26.5482 23.7029 26.4645 24.1803 26.3065 24.6428C26.1477 25.1045 24.2739 29.2804 23.7826 30.3634C23.5321 30.915 23.3148 31.3583 23.1612 31.6603L23.1604 31.6586C23.1604 31.6586 23.1508 31.6786 23.1351 31.7127C23.0033 31.9701 22.9256 32.1124 22.9256 32.1124C22.9256 32.1124 22.9265 32.1141 22.9282 32.1176C22.8235 32.307 22.7118 32.4824 22.6568 32.4824C22.6184 32.4824 22.5407 31.9788 22.6734 31.2877C22.9527 29.839 23.622 27.5804 23.6159 27.5018C23.6124 27.4617 23.7407 27.0681 23.1787 26.8621C22.6324 26.6623 22.4378 26.9957 22.388 26.9965C22.34 26.9974 22.3042 27.1143 22.3042 27.1143C22.3042 27.1143 22.9125 24.5739 21.1435 24.5739C20.0369 24.5739 18.5045 25.7843 17.7496 26.8813C17.2731 27.1414 16.2529 27.6982 15.1716 28.2925C14.7562 28.5212 14.332 28.7542 13.9297 28.9758C13.9026 28.9453 13.8747 28.9156 13.8468 28.8851C11.7008 26.596 7.73519 24.9771 7.90275 21.899C7.96384 20.7802 8.35307 17.8339 15.5241 14.2611C21.3984 11.334 26.1014 12.1395 26.9139 13.9242C28.0746 16.4751 24.4005 21.2148 18.3002 21.899C15.9762 22.16 14.7518 21.2585 14.4472 20.9233C14.1269 20.5699 14.0789 20.5542 13.9594 20.6205C13.7648 20.7287 13.8878 21.0403 13.9594 21.2262C14.1418 21.7 14.8888 22.5405 16.163 22.9594C17.2844 23.3277 20.0134 23.5292 23.3131 22.2525C27.0099 20.823 29.896 16.8451 29.0477 13.521C28.1854 10.1401 22.5791 9.02827 17.2731 10.9133C14.1112 12.0356 10.6928 13.7968 8.23438 16.0955C5.31167 18.8288 4.84564 21.2087 5.03764 22.2027C5.7201 25.7355 10.589 28.0359 12.5386 29.7403C12.4426 29.7936 12.3518 29.8433 12.2698 29.8887C11.2924 30.3722 7.58072 32.3148 6.65216 34.3666C5.59879 36.6941 6.81972 38.3645 7.62785 38.5896C10.1317 39.2861 12.7009 38.0328 14.0824 35.9732C15.4631 33.9145 15.2946 31.2327 14.661 30.0091C14.6532 29.9943 14.6444 29.9795 14.6366 29.9637C14.8888 29.8145 15.1463 29.6627 15.4011 29.5126C15.8985 29.2202 16.3873 28.9479 16.8105 28.7175C16.5731 29.3668 16.3995 30.1461 16.3096 31.2711C16.2031 32.5924 16.7451 34.3002 17.4537 34.9722C17.7661 35.2681 18.1414 35.2751 18.3788 35.2751C19.2035 35.2751 19.5796 34.5891 19.9942 33.7775C20.5021 32.7826 20.9533 31.6236 20.9533 31.6236C20.9533 31.6236 20.3878 34.7532 21.929 34.7532C22.491 34.7532 23.0556 34.0245 23.3079 33.6536C23.3087 33.6579 23.3087 33.6597 23.3087 33.6597C23.3087 33.6597 23.3236 33.6352 23.3524 33.5872C23.4108 33.4982 23.444 33.4415 23.444 33.4415C23.444 33.4415 23.4449 33.4354 23.4466 33.4249C23.6726 33.0331 24.1736 32.1394 24.9241 30.6654C25.8946 28.7612 26.8249 26.3752 26.8249 26.3752C26.8249 26.3752 26.9113 26.9581 27.1949 27.9233C27.3616 28.4906 27.7159 29.1181 27.9961 29.7203C27.7709 30.0327 27.633 30.2116 27.633 30.2116C27.633 30.2116 27.6339 30.2151 27.6365 30.2212C27.4567 30.4603 27.2551 30.7178 27.0439 30.9691C26.2777 31.8811 25.3657 32.9231 25.2435 33.2233C25.0995 33.5776 25.1336 33.8377 25.412 34.048C25.6153 34.2008 25.9766 34.2252 26.3545 34.1999C27.0431 34.1536 27.5265 33.9826 27.7657 33.8787C28.1383 33.747 28.5721 33.5401 28.9787 33.2408C29.7301 32.6884 30.1831 31.8985 30.1394 30.8513C30.115 30.2744 29.9317 29.7028 29.6987 29.1635C29.7668 29.0657 29.8349 28.9662 29.9038 28.8667C31.0881 27.1353 32.007 25.2328 32.007 25.2328C32.007 25.2328 32.0934 25.8158 32.3771 26.781C32.5202 27.2688 32.8038 27.802 33.0587 28.3239C31.9451 29.2289 31.2548 30.2805 31.0148 30.97C30.5714 32.2459 30.9188 32.8236 31.5698 32.9554C31.8648 33.0147 32.2819 32.8795 32.5953 32.7468C32.9854 32.6177 33.454 32.4021 33.8921 32.0801C34.6435 31.5276 35.3661 30.7544 35.3225 29.708C35.3024 29.2315 35.1732 28.7585 34.9978 28.3047C35.9421 27.9111 37.1639 27.693 38.7208 27.8745C42.0607 28.2646 42.7152 30.3495 42.5904 31.2222C42.4647 32.0949 41.7648 32.5749 41.5301 32.7198C41.2962 32.8646 41.2246 32.9153 41.2438 33.0226C41.2726 33.1788 41.3808 33.1736 41.5807 33.1395C41.8556 33.0933 43.334 32.43 43.3977 30.819C43.4771 28.7716 41.5179 26.5253 38.0471 26.5436ZM12.3047 35.2218C11.1981 36.4288 9.65341 36.8844 8.99015 36.5004C8.27453 36.0858 8.55816 34.309 9.91523 33.0278C10.7426 32.2476 11.8108 31.5285 12.5194 31.0861C12.6808 30.9892 12.9174 30.8469 13.2053 30.6741C13.2533 30.6471 13.2804 30.6322 13.2804 30.6322L13.2795 30.6305C13.3354 30.5973 13.3921 30.5633 13.4506 30.5275C13.9454 32.3506 13.4663 33.9555 12.3047 35.2218ZM20.3642 29.7438C19.9793 30.6829 19.1729 33.0863 18.6816 32.9571C18.2601 32.8463 18.0035 31.0197 18.5978 29.2219C18.8963 28.3169 19.5351 27.2357 19.9104 26.8159C20.5143 26.1404 21.1793 25.9196 21.3408 26.1936C21.5459 26.5427 20.6059 29.1547 20.3642 29.7438ZM27.0221 32.9205C26.8589 33.006 26.7088 33.0593 26.6399 33.0182C26.5884 32.9877 26.7071 32.8751 26.7071 32.8751C26.7071 32.8751 27.5396 31.9788 27.8678 31.5713C28.0589 31.3339 28.2797 31.052 28.5206 30.7378C28.5223 30.7693 28.5232 30.8007 28.5232 30.8312C28.5214 31.9047 27.4847 32.629 27.0221 32.9205ZM32.151 31.7511C32.0289 31.6647 32.0498 31.3845 32.4504 30.5109C32.6075 30.168 32.967 29.5911 33.5901 29.0395C33.6626 29.2665 33.7062 29.4838 33.7053 29.6862C33.6975 31.0372 32.734 31.5416 32.151 31.7511Z" fill="#F06292"/>
</svg>
