<svg width="48" height="48" viewBox="0 0 48 48" fill="none" xmlns="http://www.w3.org/2000/svg">
<path d="M24.2 12C19.08 12 15.88 14.5592 14.6 19.6776C16.52 17.1184 18.76 16.1592 21.32 16.7984C22.7808 17.1632 23.8248 18.2232 24.9808 19.396C26.8624 21.3056 29.0408 23.5168 33.8 23.5168C38.92 23.5168 42.12 20.9576 43.4 15.8384C41.48 18.3976 39.24 19.3576 36.68 18.7184C35.22 18.3536 34.176 17.2936 33.02 16.1208C31.1376 14.2104 28.9584 12 24.2 12ZM14.6 23.5168C9.48 23.5168 6.28 26.076 5 31.1952C6.92 28.636 9.16 27.676 11.72 28.316C13.18 28.6816 14.224 29.7408 15.38 30.9128C17.2624 32.8232 19.4416 35.0344 24.2 35.0344C29.32 35.0344 32.52 32.4752 33.8 27.356C31.88 29.9152 29.64 30.8752 27.08 30.2352C25.6192 29.8704 24.5752 28.8104 23.4192 27.6384C21.5376 25.728 19.3592 23.5168 14.6 23.5168Z" fill="#00ACC1"/>
</svg>
